{
    "asset" : {
        "generator" : "Khronos glTF Blender I/O v1.7.33",
        "version" : "2.0"
    },
    "scene" : 0,
    "scenes" : [
        {
            "name" : "Scene",
            "nodes" : [
                0
            ]
        }
    ],
    "nodes" : [
        {
            "mesh" : 0,
            "name" : "Plane",
            "translation" : [
                0,
                0.017025083303451538,
                0
            ]
        }
    ],
    "materials" : [
        {
            "doubleSided" : true,
            "name" : "Material.001",
            "pbrMetallicRoughness" : {
                "baseColorFactor" : [
                    0.42458656430244446,
                    0.19864077866077423,
                    0.012740394100546837,
                    1
                ],
                "roughnessFactor" : 0.5
            }
        }
    ],
    "meshes" : [
        {
            "name" : "Plane.001",
            "primitives" : [
                {
                    "attributes" : {
                        "POSITION" : 0,
                        "NORMAL" : 1,
                        "TEXCOORD_0" : 2
                    },
                    "indices" : 3,
                    "material" : 0
                }
            ]
        }
    ],
    "accessors" : [
        {
            "bufferView" : 0,
            "componentType" : 5126,
            "count" : 3801,
            "max" : [
                1.0753321647644043,
                2.1374049186706543,
                0.1949780136346817
            ],
            "min" : [
                -1.0750336647033691,
                0.003162106964737177,
                -0.19497820734977722
            ],
            "type" : "VEC3"
        },
        {
            "bufferView" : 1,
            "componentType" : 5126,
            "count" : 3801,
            "type" : "VEC3"
        },
        {
            "bufferView" : 2,
            "componentType" : 5126,
            "count" : 3801,
            "type" : "VEC2"
        },
        {
            "bufferView" : 3,
            "componentType" : 5123,
            "count" : 18096,
            "type" : "SCALAR"
        }
    ],
    "bufferViews" : [
        {
            "buffer" : 0,
            "byteLength" : 45612,
            "byteOffset" : 0
        },
        {
            "buffer" : 0,
            "byteLength" : 45612,
            "byteOffset" : 45612
        },
        {
            "buffer" : 0,
            "byteLength" : 30408,
            "byteOffset" : 91224
        },
        {
            "buffer" : 0,
            "byteLength" : 36192,
            "byteOffset" : 121632
        }
    ],
    "buffers" : [
        {
            "byteLength" : 157824,
            "uri" : "wave_ring2.bin"
        }
    ]
}
